<svg width="149" height="46" viewBox="0 0 149 46" fill="none" xmlns="http://www.w3.org/2000/svg">
    <symbol id="logotype-web">
        <path d="M8.65798 0H10.3615C13.2749 7.34946 16.1865 14.7002 19.0962 22.0521H14.827C14.291 20.585 13.7624 19.1166 13.2413 17.6469C10.7767 17.6469 8.31204 17.6264 5.84928 17.66C5.24902 19.0892 4.83388 20.5949 4.30094 22.0521C2.86605 22.0521 1.4324 22.0521 0 22.0521C2.88101 14.6989 5.767 7.34822 8.65798 0ZM6.91704 14.6691C8.6424 14.6691 10.369 14.6691 12.0969 14.6691C11.2442 12.0081 10.3709 9.35082 9.51069 6.6898C8.64676 9.35082 7.77535 12.0081 6.91704 14.6691Z" fill="#E70B1B"/>
        <path d="M61.017 0.29834H79.0156V3.74387C76.6089 3.74387 74.2022 3.74387 71.7975 3.74387C71.7975 9.84606 71.7975 15.9483 71.7975 22.0504C70.5072 22.0504 69.2169 22.0504 67.9285 22.0504C67.9285 15.9483 67.9285 9.84544 67.9285 3.742H61.017C61.0158 2.59536 61.0158 1.44747 61.017 0.29834Z" fill="#E70B1B"/>
        <path d="M140.316 2.90302C141.557 2.4502 142.795 1.98807 144.039 1.53711C144.039 3.07073 144.039 4.60435 144.039 6.13798C145.488 6.13798 146.939 6.13798 148.39 6.13798C148.39 7.14052 148.39 8.14305 148.39 9.14559C146.939 9.14559 145.486 9.14559 144.035 9.14559C144.035 11.5793 144.035 14.0148 144.035 16.4503C144.074 17.3392 144.192 18.4759 145.09 18.9287C146.331 19.4766 147.773 19.13 148.908 18.4815C148.908 19.6257 148.908 20.7698 148.908 21.9158C147.575 22.2885 146.176 22.3631 144.794 22.3258C143.558 22.2811 142.279 21.8339 141.46 20.8742C140.592 19.8735 140.295 18.5113 140.301 17.2181V9.14746C139.687 9.14746 139.074 9.14746 138.462 9.14746C138.462 8.14492 138.462 7.14238 138.462 6.13984H140.302L140.316 2.90302Z" fill="#E70B1B"/>
        <path d="M115.858 6.5985C116.336 6.03822 116.818 5.47918 117.301 4.92139C118.167 5.69658 119.022 6.48296 119.88 7.26561C119.298 7.69234 118.719 8.12094 118.133 8.54394C119.121 10.1558 119.255 12.1833 118.724 13.9703C118.467 14.7976 118.014 15.551 117.403 16.1672C116.792 16.7834 116.041 17.2442 115.214 17.5109C114.139 17.8836 112.98 17.8575 111.865 17.7084C111.379 17.6059 110.93 17.8724 110.515 18.0923C110.268 18.2302 109.939 18.4762 110.072 18.8023C110.304 19.2532 110.904 19.2215 111.338 19.1917C112.518 19.0538 113.679 18.6942 114.88 18.7724C116.293 18.8265 117.836 19.1116 118.861 20.1644C119.897 21.2825 120.065 22.9876 119.697 24.4187C119.222 26.1089 117.615 27.1524 116.045 27.7096C114.344 28.2732 112.534 28.4234 110.763 28.1475C108.993 27.8716 107.315 27.1777 105.868 26.1238C106.656 25.1566 107.437 24.1858 108.224 23.2168C109.384 24.2603 110.876 24.9927 112.464 24.9927C113.586 24.9927 114.811 24.879 115.742 24.1839C116.396 23.7181 116.387 22.6018 115.678 22.1937C114.754 21.6776 113.64 21.8397 112.63 21.9142C110.979 22.0819 109.189 22.3875 107.641 21.6086C106.399 20.9955 106.02 19.2197 106.813 18.1146C107.239 17.5106 107.814 17.0256 108.483 16.7059C107.476 16.0238 106.613 15.0921 106.192 13.9405C105.444 11.9037 105.754 9.38622 107.334 7.81347C109.474 5.54751 113.131 5.27917 115.858 6.5985ZM111.785 8.94458C111.195 9.05947 110.662 9.36861 110.27 9.82227C109.391 10.8565 109.418 12.4665 110.083 13.5995C111.046 15.2431 113.892 15.299 114.79 13.566C115.4 12.3473 115.39 10.6962 114.403 9.6732C113.756 8.95577 112.707 8.7452 111.785 8.94458Z" fill="#E70B1B"/>
        <path d="M25.5974 6.2871C28.2565 5.50445 31.3662 5.66471 33.627 7.40518L32.0338 10.1892C30.6893 8.99657 28.7109 8.69841 27.0111 9.1885C25.5656 9.61523 24.5277 10.929 24.2061 12.3564C23.8897 13.6834 23.9147 15.0685 24.279 16.3833C24.4247 16.9145 24.6874 17.4066 25.0481 17.8237C25.4088 18.2409 25.8584 18.5726 26.3641 18.7946C28.3425 19.6071 30.7585 19.2903 32.3816 17.8629C32.8323 18.8431 33.2979 19.8176 33.743 20.8015C32.7014 21.4221 31.6 22.0128 30.377 22.173C28.1331 22.4805 25.6815 22.4582 23.6657 21.2898C21.9397 20.317 20.7541 18.5449 20.3614 16.6311C19.9874 14.7435 20.008 12.7328 20.6719 10.9122C21.0787 9.81462 21.7352 8.82586 22.5897 8.02343C23.4443 7.22099 24.4737 6.62669 25.5974 6.2871Z" fill="#E70B1B"/>
        <path d="M36.6036 10.0236C37.791 7.77436 40.121 6.1103 42.6828 5.88482C44.3471 5.74879 46.0899 5.96681 47.5691 6.77742C48.5303 7.30612 49.3517 8.05493 49.9656 8.9621C50.5794 9.86927 50.9681 10.9088 51.0996 11.9951C51.2735 13.0796 51.1146 14.1772 50.8752 15.2394C47.0866 15.2394 43.2999 15.2394 39.5114 15.2394C39.588 16.7804 40.465 18.3252 41.9722 18.8656C43.9264 19.5439 46.3386 19.3334 47.9262 17.919C48.4025 18.8706 48.8831 19.8204 49.368 20.7682C47.584 22.123 45.2541 22.3876 43.0699 22.3335C41.1831 22.2981 39.2533 21.672 37.8826 20.3415C36.5998 19.134 35.9098 17.4122 35.7247 15.6829C35.5152 13.771 35.691 11.751 36.6036 10.0236ZM42.0096 9.2409C40.6651 9.73845 39.9527 11.1174 39.6554 12.433C42.2546 12.433 44.8545 12.433 47.455 12.433C47.3054 11.3354 46.894 10.1614 45.9067 9.54651C44.7548 8.84958 43.2607 8.80299 42.0096 9.2409Z" fill="#E70B1B"/>
        <path d="M78.5366 6.75877C80.7618 5.75623 83.3181 5.62766 85.6892 6.11029C87.2581 6.42708 88.7878 7.39048 89.3693 8.93529C90.6016 12.0566 89.8536 15.4723 90.2202 18.7203C90.323 19.652 90.6596 20.5949 91.3945 21.2229C90.6465 22.5832 88.4792 22.7509 87.4676 21.5956C87.1802 21.2748 86.9414 20.9138 86.7588 20.5241C85.8893 21.6552 84.4438 22.1528 83.0694 22.3018C81.3359 22.4528 79.4098 22.1285 78.1401 20.8502C76.8704 19.5719 76.7002 17.6376 77.0462 15.9736C77.394 14.3561 78.6338 13.0479 80.1279 12.3883C82.1108 11.555 84.2962 11.3223 86.411 11.7193C86.3811 10.6553 85.807 9.56141 84.728 9.24276C82.9684 8.71354 81.0143 8.93342 79.3332 9.6434C79.0639 8.68559 78.7983 7.72218 78.5366 6.75877ZM81.8389 15.0251C80.6571 15.653 80.3037 17.2892 80.9039 18.4315C81.3284 19.1936 82.2765 19.38 83.0918 19.38C84.1334 19.38 85.3077 19.0818 85.8968 18.1463C86.5718 17.0804 86.3923 15.7648 86.4166 14.5685C84.8945 14.2685 83.2227 14.2871 81.8333 15.0251H81.8389Z" fill="#E70B1B"/>
        <path d="M97.8238 7.54482C99.576 5.62919 102.585 5.42048 104.874 6.40252C104.348 7.46842 103.825 8.53618 103.293 9.60021C102.338 9.04117 101.137 8.72811 100.077 9.17162C98.6503 9.81823 97.7976 11.4078 97.8332 12.9321C97.8332 15.9714 97.8332 19.0125 97.8332 22.0518C96.5934 22.0518 95.3536 22.0518 94.1138 22.0518C94.1138 16.7472 94.1138 11.4413 94.1138 6.13418H97.835C97.8219 6.60564 97.8257 7.08082 97.8238 7.54482Z" fill="#E70B1B"/>
        <path d="M122.366 9.76427C123.569 7.69584 125.732 6.16594 128.143 5.90133C129.717 5.74294 131.361 5.91251 132.806 6.58336C133.809 7.05559 134.683 7.76101 135.354 8.64019C136.026 9.51937 136.476 10.5465 136.666 11.6352C136.903 12.8315 136.773 14.0577 136.496 15.2335C132.709 15.2335 128.922 15.2335 125.136 15.2335C125.203 16.7802 126.093 18.3306 127.606 18.8672C129.56 19.54 131.963 19.3238 133.551 17.915C134.022 18.8691 134.508 19.8157 134.989 20.7661C133.21 22.1134 130.875 22.3817 128.715 22.3295C126.826 22.2979 124.891 21.6811 123.518 20.3506C122.275 19.1859 121.581 17.5405 121.371 15.8783C121.106 13.808 121.304 11.5998 122.366 9.76427ZM127.632 9.24064C126.288 9.73446 125.575 11.1153 125.278 12.4309C127.877 12.4383 130.477 12.4383 133.077 12.4309C132.926 11.337 132.516 10.1686 131.537 9.54998C130.387 8.84932 128.887 8.80087 127.632 9.24064Z" fill="#E70B1B"/>
        <path d="M0.0086436 34.0156H1.76081V35.5921H0.0086436C0.00677363 35.061 0.0086436 34.5374 0.0086436 34.0156Z" fill="#E70B1B"/>
        <path d="M40.5982 34.0137H42.3504V35.592H40.5982C40.5964 35.0609 40.5982 34.5373 40.5982 34.0137Z" fill="#E70B1B"/>
        <path d="M78.793 33.939H80.4348C80.4348 37.2236 80.4348 40.5089 80.4348 43.7948H78.7967C78.7918 40.5089 78.7905 37.2236 78.793 33.939Z" fill="#E70B1B"/>
        <path d="M12.4624 34.7085H14.1042C14.1042 35.3588 14.1042 36.0129 14.1042 36.6577C14.7419 36.6577 15.3777 36.6577 16.0135 36.6577V38.0739H14.1023C14.1023 39.192 14.093 40.3212 14.1023 41.4467C14.1023 41.7747 14.151 42.1921 14.495 42.3449C14.9812 42.563 15.503 42.3449 15.991 42.2331C15.991 42.6791 15.991 43.1251 15.991 43.5711C15.1757 43.9438 14.1902 44.0649 13.36 43.6754C12.7317 43.3698 12.4923 42.6394 12.4755 41.9872C12.4455 40.6827 12.4755 39.3783 12.4755 38.0739C12.1763 38.0739 11.8771 38.0739 11.5779 38.0739V36.6577C11.8771 36.6577 12.1744 36.6577 12.4736 36.6577C12.4624 36.0073 12.4605 35.357 12.4624 34.7085Z" fill="#E70B1B"/>
        <path d="M0.0671387 36.6597H1.70711C1.70711 39.0374 1.70711 41.4152 1.70711 43.793H0.0671387V36.6597Z" fill="#E70B1B"/>
        <path d="M3.81426 36.6617C4.36403 36.6617 4.91194 36.6617 5.46171 36.6617C5.46171 37.0064 5.46171 37.3493 5.46171 37.694C5.83029 37.1589 6.37824 36.7723 7.00716 36.6036C7.63608 36.4348 8.30476 36.4951 8.89311 36.7735C9.73273 37.1779 10.1703 38.1189 10.1853 39.0096C10.2171 40.601 10.1853 42.1961 10.1984 43.7894H8.54904C8.53408 42.3843 8.57148 40.9774 8.53408 39.5743C8.5453 38.8792 8.11333 38.1133 7.36347 38.0388C6.4958 37.8282 5.55334 38.4711 5.4935 39.3693C5.40935 40.8395 5.4935 42.3154 5.45797 43.7894H3.81239C3.81114 41.4154 3.81177 39.0394 3.81426 36.6617Z" fill="#E70B1B"/>
        <path d="M18.4482 37.2019C19.7572 36.1677 21.9152 36.2889 23.0091 37.5951C23.7571 38.4784 23.9572 39.6841 23.9104 40.8115C22.1601 40.8226 20.4098 40.8115 18.6595 40.8208C18.8278 41.6295 19.3813 42.4289 20.2546 42.5557C21.141 42.7644 22.0087 42.3563 22.6519 41.7693C22.9754 42.0525 23.2933 42.3414 23.615 42.6302C22.364 44.1619 19.875 44.4117 18.351 43.1631C16.5558 41.7134 16.625 38.6014 18.4482 37.2019ZM19.2635 38.3964C18.9045 38.7523 18.7923 39.2573 18.6464 39.7213C19.8732 39.7213 21.1017 39.7381 22.3284 39.7213C22.1695 39.2462 22.0685 38.7132 21.6964 38.3498C21.5338 38.1922 21.3415 38.0682 21.1306 37.9851C20.9196 37.902 20.6942 37.8615 20.4674 37.8658C20.2406 37.8701 20.0169 37.9193 19.8093 38.0103C19.6017 38.1014 19.4143 38.2327 19.2579 38.3964H19.2635Z" fill="#E70B1B"/>
        <path d="M25.5283 36.6618C26.0781 36.6618 26.626 36.6618 27.1757 36.6618C27.1757 37.0121 27.1757 37.3624 27.1757 37.7127C27.9611 36.4903 29.7488 36.1176 30.9344 36.9674C31.6375 37.4724 31.9161 38.3687 31.9161 39.2035C31.933 40.7315 31.9161 42.2614 31.9161 43.7913H30.2799C30.2706 42.4441 30.2911 41.0949 30.2799 39.7476C30.2799 39.1588 30.106 38.4768 29.5319 38.1823C28.9148 37.8842 28.0696 37.9625 27.6058 38.4991C27.2487 38.8849 27.1776 39.4309 27.1776 39.9358C27.1776 41.2198 27.1776 42.5056 27.1776 43.7913H25.532C25.5283 41.4161 25.5271 39.0395 25.5283 36.6618Z" fill="#E70B1B"/>
        <path d="M34.6295 36.9281C35.9385 36.1828 37.5672 36.6039 38.7846 37.3381C38.5639 37.7294 38.3489 38.1245 38.1319 38.5195C37.369 38.1263 36.5032 37.6754 35.6243 37.9288C35.1475 38.0462 34.9362 38.7543 35.398 39.0264C36.3573 39.6227 37.6271 39.632 38.4517 40.465C39.3437 41.3837 38.9398 43.1036 37.7841 43.6142C36.2975 44.2962 34.5322 43.8006 33.2644 42.8688C33.5094 42.4961 33.7506 42.1234 33.9956 41.7508C34.8333 42.3098 35.8543 42.8148 36.8828 42.5371C37.3896 42.4272 37.642 41.6799 37.1633 41.3743C36.2283 40.8153 35.0128 40.8153 34.1807 40.0569C33.2569 39.2034 33.543 37.5207 34.6295 36.9281Z" fill="#E70B1B"/>
        <path d="M40.6522 36.6616C41.2007 36.6616 41.7493 36.6616 42.2978 36.6616C42.2978 39.0394 42.2978 41.4172 42.2978 43.7949H40.6522C40.6485 41.4172 40.6485 39.0394 40.6522 36.6616Z" fill="#E70B1B"/>
        <path d="M43.7285 36.6631C44.3157 36.6631 44.901 36.6631 45.4882 36.6631C46.1296 38.3942 46.7485 40.1328 47.3918 41.8658C48.0332 40.1328 48.6596 38.3942 49.3029 36.6631H51.0233C50.0609 39.0632 49.0922 41.4615 48.1173 43.8579H46.6475C45.6714 41.4602 44.6984 39.062 43.7285 36.6631Z" fill="#E70B1B"/>
        <path d="M52.8187 37.357C54.0211 36.2538 56.0762 36.2147 57.2917 37.3178C58.2585 38.1918 58.5296 39.5652 58.4604 40.8137C56.7082 40.8137 54.9561 40.8044 53.2058 40.8137C53.3928 41.5833 53.8752 42.3585 54.7018 42.5262C55.6162 42.7759 56.5325 42.3734 57.2019 41.7622C57.5235 42.0473 57.8414 42.3324 58.1612 42.6212C56.9195 44.1437 54.4587 44.4008 52.9253 43.1803C51.1731 41.7976 51.16 38.8254 52.8187 37.357ZM53.8416 38.367C53.4676 38.7266 53.346 39.2446 53.1871 39.7161C54.4157 39.7347 55.6442 39.7329 56.8728 39.7161C56.7288 39.2353 56.626 38.7024 56.2464 38.3409C55.9222 38.03 55.4885 37.8585 55.0386 37.8634C54.5888 37.8683 54.1588 38.0491 53.8416 38.367Z" fill="#E70B1B"/>
        <path d="M64.9028 36.9205C66.2118 36.1844 67.8275 36.6093 69.043 37.3342C68.8242 37.7274 68.6073 38.1224 68.3885 38.5175C67.6405 38.128 66.7822 37.6864 65.9107 37.9193C65.4133 38.0237 65.1815 38.7597 65.6695 39.0374C66.6344 39.6281 67.9135 39.6449 68.7288 40.4871C69.5909 41.4189 69.1926 43.096 68.0556 43.6122C66.5596 44.3054 64.7962 43.8097 63.5247 42.8835C63.7659 42.5109 64.009 42.1382 64.2539 41.7655C65.101 42.3245 66.1426 42.8425 67.1786 42.5369C67.6554 42.4102 67.8854 41.7021 67.4404 41.4002C66.4792 40.7983 65.1871 40.8412 64.3587 39.9933C63.519 39.0951 63.8407 37.4888 64.9028 36.9205Z" fill="#E70B1B"/>
        <path d="M70.9503 37.1404C72.2593 36.559 73.8151 36.3186 75.1952 36.8124C76.1732 37.1721 76.7435 38.197 76.7641 39.2032C76.8108 40.7331 76.7641 42.2649 76.7828 43.7948H75.1503C75.1503 43.5209 75.1652 43.2488 75.1746 42.9786C74.1704 44.0389 72.3958 44.283 71.1841 43.4445C69.9723 42.6059 70.077 40.517 71.3711 39.807C72.5435 39.1455 73.9685 39.3561 75.2213 39.6393C75.1204 39.1306 75.0343 38.5212 74.5107 38.2678C73.5197 37.7926 72.3752 38.1019 71.3991 38.4541C71.2439 38.0144 71.098 37.5802 70.9503 37.1404ZM72.5174 40.7648C71.8703 41.0443 71.7694 42.0506 72.3734 42.4308C73.1214 42.9022 74.2041 42.7438 74.8268 42.1345C75.2008 41.7916 75.1877 41.2624 75.2251 40.8002C74.3537 40.5766 73.3663 40.3437 72.5174 40.7648Z" fill="#E70B1B"/>
        <path d="M83.1327 37.5912C84.3444 36.2122 86.7585 36.1302 88.017 37.485C88.8492 38.3682 89.0736 39.6372 89.0156 40.8112C87.2653 40.8224 85.5131 40.8112 83.7628 40.8205C83.9311 41.4727 84.2621 42.1585 84.9316 42.4231C85.9058 42.8554 87.0259 42.479 87.7571 41.7672C88.0843 42.0523 88.4022 42.3486 88.7257 42.6411C87.3999 44.2344 84.7315 44.4263 83.2392 42.9728C81.8068 41.5771 81.7919 39.0503 83.1327 37.5912ZM84.3537 38.413C84.0059 38.767 83.8937 39.2627 83.7535 39.7174C84.9783 39.7174 86.205 39.7267 87.4299 39.7174C87.2821 39.2273 87.1681 38.6869 86.781 38.3216C86.6159 38.1683 86.422 38.0489 86.2104 37.9704C85.9989 37.892 85.7739 37.856 85.5483 37.8644C85.3228 37.8729 85.1011 37.9258 84.8961 38.0199C84.6911 38.114 84.5068 38.2476 84.3537 38.413Z" fill="#E70B1B"/>
        <path d="M91.4711 36.8964C92.7801 36.1901 94.3677 36.615 95.5719 37.3305L94.9137 38.5138C94.1657 38.1281 93.3298 37.6939 92.4659 37.9064C92.0171 37.9939 91.7067 38.6275 92.1069 38.9536C93.0306 39.6207 94.3172 39.5965 95.1718 40.3959C95.8618 41.0165 95.8562 42.1327 95.3943 42.8855C94.895 43.6682 93.8983 43.9514 93.0157 43.9253C91.9386 43.9253 90.9157 43.4893 90.0518 42.8725C90.293 42.4998 90.5398 42.1271 90.7848 41.7544C91.6319 42.3134 92.6809 42.8371 93.7188 42.5203C94.1863 42.3898 94.4051 41.6929 93.975 41.4022C93.0232 40.7984 91.731 40.832 90.9063 40.0083C90.0312 39.1101 90.3697 37.4554 91.4711 36.8964Z" fill="#E70B1B"/>
        <path d="M101.503 37.1367C102.648 36.6056 103.928 36.4328 105.174 36.641C105.512 36.6983 105.835 36.8227 106.124 37.0067C106.413 37.1908 106.662 37.4308 106.857 37.7125C107.251 38.3125 107.332 39.0523 107.33 39.7623C107.33 41.1096 107.33 42.4568 107.33 43.8041H105.697C105.697 43.5283 105.71 43.2451 105.718 42.9786C104.734 44.0352 102.992 44.283 101.78 43.4855C100.783 42.8333 100.619 41.3406 101.273 40.3959C102.333 39.0616 104.289 39.2927 105.761 39.6505C105.684 39.1231 105.563 38.5007 105.013 38.2529C104.027 37.8038 102.9 38.1038 101.935 38.4653C101.802 38.0144 101.651 37.5783 101.503 37.1367ZM103.021 40.7872C102.38 41.1021 102.352 42.1363 102.99 42.4736C103.367 42.664 103.793 42.7372 104.213 42.6837C104.633 42.6302 105.027 42.4525 105.344 42.1736C105.739 41.8326 105.733 41.2829 105.785 40.8114C104.903 40.5654 103.88 40.3362 103.021 40.7872Z" fill="#E70B1B"/>
        <path d="M110.534 36.9186C111.194 36.5566 111.959 36.433 112.701 36.5689C113.442 36.7047 114.113 37.0916 114.601 37.664C114.59 37.3267 114.588 36.9931 114.584 36.6596C115.13 36.6596 115.678 36.6596 116.228 36.6596C116.228 38.564 116.228 40.4666 116.228 42.3692C116.228 43.3624 115.994 44.4488 115.218 45.1327C114.365 45.8781 113.161 46.016 112.078 45.9731C111.076 45.9239 110.099 45.6398 109.227 45.1439C109.431 44.7265 109.636 44.3109 109.842 43.8972C110.964 44.5625 112.46 44.9538 113.685 44.3444C114.547 43.8916 114.62 42.8295 114.648 41.9741C114.197 42.3971 113.754 42.8723 113.152 43.0643C112.524 43.2731 111.848 43.286 111.213 43.1012C110.578 42.9164 110.015 42.5426 109.599 42.03C108.387 40.4871 108.74 37.8652 110.534 36.9186ZM112.123 37.9416C110.592 38.128 110.019 40.2635 111.115 41.2772C112.207 42.3953 114.455 41.7338 114.603 40.1256C114.846 38.769 113.412 37.6248 112.123 37.9416Z" fill="#E70B1B"/>
        <path d="M118.849 37.5782C120.068 36.2067 122.483 36.134 123.734 37.4962C124.56 38.3813 124.773 39.6429 124.725 40.8094C122.972 40.8243 121.22 40.8094 119.47 40.8206C119.638 41.566 120.102 42.3281 120.901 42.5163C121.836 42.7996 122.787 42.4027 123.464 41.771C123.786 42.0579 124.108 42.3449 124.429 42.6356C123.092 44.2773 120.328 44.432 118.86 42.8909C117.508 41.4709 117.525 39.0093 118.849 37.5782ZM120.068 38.4056C119.713 38.7577 119.601 39.259 119.459 39.7212C120.684 39.7212 121.908 39.7323 123.135 39.7212C122.987 39.2367 122.881 38.7 122.498 38.3366C122.334 38.1811 122.141 38.0594 121.93 37.9786C121.719 37.8978 121.494 37.8595 121.269 37.8659C121.043 37.8723 120.82 37.9233 120.614 38.016C120.408 38.1086 120.223 38.241 120.068 38.4056Z" fill="#E70B1B"/>
        <path d="M126.344 36.6615H127.988C127.988 37.0137 127.975 37.364 127.969 37.7181C128.564 36.8963 129.557 36.3541 130.587 36.5385C131.765 36.6149 132.655 37.6995 132.691 38.8436C132.743 40.4928 132.691 42.1457 132.711 43.7967H131.083C131.083 42.5146 131.083 41.2326 131.083 39.9524C131.083 39.4157 131.032 38.8175 130.638 38.4132C130.174 37.9454 129.396 37.9194 128.824 38.184C128.251 38.4486 127.988 39.1436 127.992 39.7586C127.969 41.104 127.992 42.4513 127.992 43.7986H126.353C126.345 41.4183 126.342 39.0393 126.344 36.6615Z" fill="#E70B1B"/>
        <path d="M134.918 38.1185C136.163 36.1339 139.303 35.9774 140.823 37.7253L139.812 38.8434C139.211 38.2639 138.39 37.7887 137.528 38.0123C136.362 38.2657 135.735 39.5925 135.959 40.6994C136.096 41.715 137.027 42.5908 138.078 42.533C138.791 42.5442 139.387 42.097 139.89 41.6498C140.217 41.9777 140.545 42.3094 140.872 42.6393C139.591 44.2064 137.023 44.43 135.518 43.0679C134.127 41.8603 133.888 39.6167 134.918 38.1185Z" fill="#E70B1B"/>
        <path d="M141.658 36.6614C142.24 36.6614 142.825 36.6614 143.41 36.6614C144.075 38.4156 144.742 40.1678 145.413 41.9182C146.021 40.1654 146.632 38.4118 147.244 36.6577H148.953C148.024 39.0777 147.094 41.5002 146.161 43.9252C145.864 44.6706 145.497 45.4979 144.716 45.8371C143.854 46.1632 142.9 45.9582 142.098 45.5874C142.285 45.1812 142.457 44.7712 142.642 44.365C143.137 44.514 143.764 44.8066 144.213 44.4004C144.4 44.2028 144.686 43.9215 144.544 43.6326C143.588 41.3014 142.608 38.987 141.658 36.6614Z" fill="#E70B1B"/>
    </symbol>
</svg>
