<svg width="136" height="42" viewBox="0 0 136 42" fill="none" xmlns="http://www.w3.org/2000/svg">
    <symbol id="logotype">
        <path d="M7.90509 0H9.4605C12.1206 6.71036 14.7789 13.4219 17.4356 20.1345H13.5377C13.0482 18.7949 12.5656 17.4542 12.0898 16.1123C9.83953 16.1123 7.58923 16.0936 5.34063 16.1243C4.79257 17.4292 4.41353 18.804 3.92693 20.1345C2.61682 20.1345 1.30784 20.1345 0 20.1345C2.63048 13.4207 5.26551 6.70923 7.90509 0ZM6.31554 13.3935C7.89086 13.3935 9.46733 13.3935 11.0449 13.3935C10.2664 10.9639 9.46903 8.53767 8.68365 6.10806C7.89485 8.53767 7.09922 10.9639 6.31554 13.3935Z" fill="#E70B1B"/>
        <path d="M55.7113 0.272461H72.1447V3.41837C69.9473 3.41837 67.7499 3.41837 65.5542 3.41837C65.5542 8.98992 65.5542 14.5615 65.5542 20.133C64.3762 20.133 63.1981 20.133 62.0217 20.133C62.0217 14.5615 62.0217 8.98935 62.0217 3.41667H55.7113C55.7102 2.36973 55.7102 1.32166 55.7113 0.272461Z" fill="#E70B1B"/>
        <path d="M128.114 2.6507C129.247 2.23726 130.378 1.81531 131.513 1.40356C131.513 2.80382 131.513 4.20408 131.513 5.60434C132.836 5.60434 134.161 5.60434 135.486 5.60434C135.486 6.5197 135.486 7.43506 135.486 8.35042C134.161 8.35042 132.835 8.35042 131.51 8.35042C131.51 10.5725 131.51 12.7962 131.51 15.0199C131.545 15.8315 131.653 16.8694 132.473 17.2828C133.606 17.783 134.923 17.4666 135.959 16.8745C135.959 17.9191 135.959 18.9638 135.959 20.0102C134.742 20.3505 133.465 20.4185 132.203 20.3845C131.074 20.3437 129.906 19.9353 129.159 19.0591C128.366 18.1454 128.095 16.9017 128.1 15.7209V8.35212C127.54 8.35212 126.98 8.35212 126.422 8.35212C126.422 7.43676 126.422 6.5214 126.422 5.60605H128.102L128.114 2.6507Z" fill="#E70B1B"/>
        <path d="M105.783 6.02468C106.22 5.51312 106.66 5.0027 107.101 4.49341C107.892 5.20119 108.672 5.91919 109.456 6.63378C108.925 7.0234 108.395 7.41473 107.861 7.80095C108.762 9.27267 108.885 11.1238 108.401 12.7555C108.165 13.5108 107.752 14.1987 107.194 14.7613C106.636 15.3239 105.951 15.7447 105.196 15.9881C104.214 16.3284 103.156 16.3046 102.138 16.1685C101.694 16.0749 101.284 16.3182 100.905 16.519C100.68 16.6449 100.379 16.8695 100.501 17.1672C100.712 17.5789 101.26 17.55 101.656 17.5228C102.734 17.3969 103.794 17.0685 104.89 17.14C106.181 17.1893 107.59 17.4496 108.525 18.4109C109.471 19.4318 109.625 20.9886 109.288 22.2953C108.855 23.8384 107.388 24.7912 105.954 25.2999C104.402 25.8146 102.748 25.9517 101.132 25.6998C99.5154 25.4479 97.983 24.8144 96.6624 23.852C97.3812 22.969 98.0949 22.0826 98.8137 21.1978C99.8723 22.1506 101.235 22.8193 102.684 22.8193C103.709 22.8193 104.827 22.7155 105.677 22.0809C106.275 21.6555 106.266 20.6364 105.619 20.2638C104.776 19.7925 103.758 19.9405 102.836 20.0086C101.329 20.1617 99.6947 20.4407 98.281 19.7295C97.1473 19.1698 96.8007 17.5483 97.5246 16.5394C97.9142 15.9879 98.4391 15.545 99.0493 15.2531C98.1307 14.6304 97.3419 13.7797 96.9578 12.7282C96.2748 10.8686 96.5583 8.56999 98.001 7.134C99.9542 5.06508 103.294 4.82008 105.783 6.02468ZM102.065 8.16675C101.526 8.27165 101.039 8.55391 100.682 8.96812C99.8791 9.9124 99.903 11.3824 100.511 12.4169C101.39 13.9175 103.989 13.9686 104.808 12.3862C105.365 11.2735 105.356 9.76608 104.455 8.832C103.864 8.17696 102.906 7.9847 102.065 8.16675Z" fill="#E70B1B"/>
        <path d="M23.3721 5.74047C25.8 5.02588 28.6393 5.1722 30.7035 6.76132L29.2489 9.30322C28.0213 8.21432 26.2149 7.9421 24.6629 8.38957C23.3431 8.77919 22.3955 9.97868 22.1019 11.282C21.8129 12.4936 21.8358 13.7583 22.1684 14.9587C22.3014 15.4437 22.5413 15.893 22.8706 16.2739C23.2 16.6548 23.6105 16.9576 24.0722 17.1603C25.8785 17.9021 28.0845 17.6129 29.5664 16.3096C29.9779 17.2046 30.4031 18.0944 30.8094 18.9927C29.8584 19.5593 28.8528 20.0987 27.7362 20.245C25.6873 20.5257 23.449 20.5053 21.6084 19.4385C20.0325 18.5504 18.9501 16.9323 18.5915 15.185C18.25 13.4615 18.2688 11.6256 18.8749 9.96337C19.2464 8.96124 19.8458 8.05846 20.626 7.32581C21.4063 6.59315 22.3462 6.05053 23.3721 5.74047Z" fill="#E70B1B"/>
        <path d="M33.4216 9.15183C34.5058 7.09823 36.6332 5.57887 38.9723 5.373C40.4918 5.2488 42.0831 5.44786 43.4336 6.18798C44.3113 6.67071 45.0612 7.3544 45.6217 8.18268C46.1821 9.01096 46.537 9.96013 46.6571 10.9519C46.8159 11.9421 46.6708 12.9443 46.4522 13.9141C42.9931 13.9141 39.5357 13.9141 36.0766 13.9141C36.1466 15.3211 36.9473 16.7316 38.3235 17.225C40.1077 17.8443 42.3101 17.6521 43.7597 16.3607C44.1945 17.2296 44.6333 18.0967 45.0761 18.9622C43.4473 20.1991 41.3199 20.4407 39.3257 20.3913C37.6029 20.359 35.841 19.7873 34.5895 18.5725C33.4182 17.47 32.7882 15.8979 32.6192 14.319C32.4279 12.5734 32.5884 10.729 33.4216 9.15183ZM38.3576 8.43724C37.13 8.89152 36.4795 10.1506 36.208 11.3518C38.5813 11.3518 40.9551 11.3518 43.3294 11.3518C43.1929 10.3496 42.8172 9.27774 41.9157 8.71627C40.864 8.07994 39.4998 8.03741 38.3576 8.43724Z" fill="#E70B1B"/>
        <path d="M71.7075 6.17097C73.7393 5.25561 76.0732 5.13821 78.2382 5.57888C79.6706 5.86812 81.0673 6.74774 81.5982 8.15821C82.7234 11.0081 82.0405 14.1268 82.3751 17.0923C82.469 17.943 82.7763 18.8039 83.4473 19.3773C82.7644 20.6193 80.7855 20.7725 79.8619 19.7176C79.5995 19.4247 79.3815 19.0951 79.2148 18.7393C78.4208 19.772 77.1011 20.2263 75.8461 20.3624C74.2634 20.5002 72.5048 20.2042 71.3455 19.037C70.1862 17.8699 70.0309 16.1038 70.3467 14.5844C70.6643 13.1076 71.7963 11.9132 73.1605 11.3109C74.971 10.5501 76.9663 10.3377 78.8972 10.7001C78.8699 9.72861 78.3457 8.72989 77.3606 8.43894C75.7539 7.95574 73.9698 8.15651 72.4348 8.80475C72.189 7.93022 71.9465 7.0506 71.7075 6.17097ZM74.7227 13.7184C73.6436 14.2918 73.321 15.7856 73.869 16.8286C74.2566 17.5245 75.1222 17.6946 75.8666 17.6946C76.8176 17.6946 77.8899 17.4224 78.4277 16.5683C79.044 15.5951 78.8801 14.3939 78.9023 13.3016C77.5125 13.0276 75.9861 13.0447 74.7176 13.7184H74.7227Z" fill="#E70B1B"/>
        <path d="M89.3173 6.88898C90.9171 5.13993 93.6642 4.94938 95.7541 5.84602C95.2743 6.81922 94.7962 7.79413 94.3113 8.76564C93.4389 8.25521 92.3427 7.96938 91.3747 8.37431C90.072 8.9647 89.2934 10.416 89.3258 11.8078C89.3258 14.5828 89.3258 17.3595 89.3258 20.1345C88.1939 20.1345 87.0619 20.1345 85.9299 20.1345C85.9299 15.2911 85.9299 10.4466 85.9299 5.60102H89.3275C89.3156 6.03147 89.319 6.46533 89.3173 6.88898Z" fill="#E70B1B"/>
        <path d="M111.726 8.91526C112.824 7.02669 114.8 5.62984 117 5.38824C118.438 5.24362 119.939 5.39844 121.259 6.01095C122.174 6.44212 122.972 7.0862 123.585 7.88892C124.198 8.69165 124.609 9.6295 124.783 10.6235C124.999 11.7158 124.88 12.8353 124.627 13.9089C121.17 13.9089 117.712 13.9089 114.255 13.9089C114.316 15.3211 115.129 16.7366 116.51 17.2266C118.295 17.8408 120.489 17.6435 121.938 16.3572C122.368 17.2283 122.812 18.0927 123.251 18.9604C121.627 20.1905 119.495 20.4355 117.523 20.3879C115.798 20.3589 114.031 19.7958 112.778 18.581C111.643 17.5176 111.009 16.0152 110.818 14.4976C110.576 12.6073 110.757 10.5911 111.726 8.91526ZM116.534 8.43716C115.307 8.88803 114.656 10.1488 114.385 11.35C116.758 11.3568 119.132 11.3568 121.506 11.35C121.368 10.3512 120.994 9.28446 120.099 8.71959C119.049 8.07986 117.68 8.03563 116.534 8.43716Z" fill="#E70B1B"/>
        <path d="M0.00855607 31.0575H1.60836V32.4969H0.00855607C0.00684871 32.012 0.00855607 31.5339 0.00855607 31.0575Z" fill="#E70B1B"/>
        <path d="M37.0684 31.0558H38.6682V32.4969H37.0684C37.0667 32.012 37.0684 31.5339 37.0684 31.0558Z" fill="#E70B1B"/>
        <path d="M71.9413 30.9878H73.4404C73.4404 33.9868 73.4404 36.9864 73.4404 39.9865H71.9447C71.9402 36.9864 71.939 33.9868 71.9413 30.9878Z" fill="#E70B1B"/>
        <path d="M11.3794 31.6904H12.8784C12.8784 32.2842 12.8784 32.8814 12.8784 33.4701C13.4607 33.4701 14.0412 33.4701 14.6217 33.4701V34.7632H12.8767C12.8767 35.784 12.8682 36.8151 12.8767 37.8427C12.8767 38.1422 12.9211 38.5233 13.2353 38.6628C13.6792 38.8619 14.1555 38.6628 14.6012 38.5607C14.6012 38.9679 14.6012 39.3751 14.6012 39.7823C13.8568 40.1226 12.957 40.2332 12.1989 39.8776C11.6252 39.5986 11.4067 38.9316 11.3913 38.3361C11.364 37.1452 11.3913 35.9542 11.3913 34.7632C11.1181 34.7632 10.845 34.7632 10.5718 34.7632V33.4701C10.845 33.4701 11.1164 33.4701 11.3896 33.4701C11.3794 32.8763 11.3777 32.2825 11.3794 31.6904Z" fill="#E70B1B"/>
        <path d="M0.0616074 33.4718H1.55896C1.55896 35.6428 1.55896 37.8138 1.55896 39.9848H0.0616074V33.4718Z" fill="#E70B1B"/>
        <path d="M3.4832 33.4735C3.98517 33.4735 4.48542 33.4735 4.98739 33.4735C4.98739 33.7883 4.98739 34.1014 4.98739 34.4161C5.32392 33.9275 5.82422 33.5745 6.39845 33.4205C6.97268 33.2664 7.58321 33.3214 8.1204 33.5756C8.88701 33.9448 9.28653 34.804 9.30019 35.6173C9.32921 37.0703 9.30019 38.5267 9.31214 39.9814H7.80625C7.79259 38.6986 7.82673 37.414 7.79259 36.1328C7.80283 35.4982 7.40843 34.7989 6.72378 34.7309C5.93156 34.5386 5.07105 35.1256 5.01641 35.9457C4.93958 37.2881 5.01641 38.6356 4.98398 39.9814H3.4815C3.48036 37.8138 3.48093 35.6445 3.4832 33.4735Z" fill="#E70B1B"/>
        <path d="M16.8448 33.9669C18.04 33.0226 20.0103 33.1332 21.0091 34.3259C21.692 35.1323 21.8747 36.2331 21.832 37.2625C20.2339 37.2727 18.6358 37.2625 17.0378 37.271C17.1914 38.0094 17.6968 38.7393 18.4941 38.855C19.3034 39.0456 20.0956 38.673 20.683 38.137C20.9783 38.3956 21.2686 38.6594 21.5623 38.9231C20.42 40.3216 18.1475 40.5496 16.756 39.4097C15.117 38.086 15.1801 35.2446 16.8448 33.9669ZM17.5892 35.0575C17.2614 35.3824 17.159 35.8435 17.0258 36.2672C18.1458 36.2672 19.2676 36.2825 20.3876 36.2672C20.2425 35.8333 20.1503 35.3467 19.8105 35.0149C19.6621 34.871 19.4865 34.7578 19.2939 34.6819C19.1013 34.6061 18.8955 34.569 18.6884 34.573C18.4813 34.5769 18.2771 34.6218 18.0875 34.705C17.898 34.7881 17.7269 34.9079 17.5841 35.0575H17.5892Z" fill="#E70B1B"/>
        <path d="M23.3088 33.4735C23.8108 33.4735 24.311 33.4735 24.813 33.4735C24.813 33.7934 24.813 34.1133 24.813 34.4331C25.5301 33.317 27.1623 32.9767 28.2448 33.7526C28.8868 34.2136 29.1412 35.032 29.1412 35.7942C29.1565 37.1894 29.1412 38.5863 29.1412 39.9831H27.6472C27.6387 38.753 27.6575 37.5212 27.6472 36.2911C27.6472 35.7534 27.4884 35.1307 26.9643 34.8619C26.4009 34.5896 25.6291 34.6611 25.2057 35.1511C24.8796 35.5033 24.8147 36.0018 24.8147 36.4629C24.8147 37.6352 24.8147 38.8091 24.8147 39.9831H23.3122C23.3088 37.8144 23.3077 35.6445 23.3088 33.4735Z" fill="#E70B1B"/>
        <path d="M31.6186 33.7168C32.8138 33.0363 34.3009 33.4208 35.4124 34.0912C35.2109 34.4484 35.0146 34.8091 34.8165 35.1698C34.1199 34.8109 33.3294 34.3991 32.527 34.6305C32.0916 34.7377 31.8986 35.3842 32.3204 35.6326C33.1962 36.1771 34.3555 36.1856 35.1085 36.9461C35.9229 37.7849 35.5541 39.3553 34.499 39.8215C33.1416 40.4442 31.5299 39.9916 30.3723 39.1409C30.5959 38.8007 30.8162 38.4604 31.0398 38.1201C31.8047 38.6305 32.737 39.0916 33.676 38.8381C34.1387 38.7377 34.3692 38.0554 33.9321 37.7764C33.0784 37.266 31.9686 37.266 31.2089 36.5735C30.3654 35.7943 30.6267 34.2579 31.6186 33.7168Z" fill="#E70B1B"/>
        <path d="M37.1181 33.4735C37.6189 33.4735 38.1197 33.4735 38.6205 33.4735C38.6205 35.6445 38.6205 37.8155 38.6205 39.9865H37.1181C37.1146 37.8155 37.1146 35.6445 37.1181 33.4735Z" fill="#E70B1B"/>
        <path d="M39.9266 33.4752C40.4627 33.4752 40.9971 33.4752 41.5332 33.4752C42.1188 35.0558 42.6839 36.6432 43.2713 38.2256C43.8569 36.6432 44.4289 35.0558 45.0162 33.4752H46.587C45.7083 35.6666 44.8238 37.8563 43.9337 40.0444H42.5918C41.7005 37.8552 40.8121 35.6655 39.9266 33.4752Z" fill="#E70B1B"/>
        <path d="M48.2262 34.1081C49.324 33.1009 51.2004 33.0652 52.3102 34.0724C53.1929 34.8704 53.4405 36.1243 53.3773 37.2642C51.7775 37.2642 50.1777 37.2557 48.5796 37.2642C48.7503 37.9669 49.1908 38.6747 49.9455 38.8278C50.7804 39.0558 51.617 38.6883 52.2282 38.1303C52.5219 38.3906 52.8121 38.6509 53.1041 38.9146C51.9704 40.3047 49.7235 40.5395 48.3235 39.425C46.7237 38.1626 46.7117 35.4488 48.2262 34.1081ZM49.1601 35.0303C48.8186 35.3587 48.7076 35.8317 48.5625 36.2621C49.6843 36.2791 50.806 36.2774 51.9277 36.2621C51.7963 35.8231 51.7024 35.3365 51.3558 35.0065C51.0598 34.7226 50.6638 34.5661 50.253 34.5705C49.8423 34.575 49.4498 34.7401 49.1601 35.0303Z" fill="#E70B1B"/>
        <path d="M59.2592 33.71C60.4543 33.0379 61.9295 33.4258 63.0393 34.0877C62.8395 34.4467 62.6415 34.8074 62.4417 35.1681C61.7588 34.8125 60.9751 34.4093 60.1795 34.6219C59.7253 34.7172 59.5136 35.3893 59.9592 35.6428C60.8402 36.1821 62.008 36.1974 62.7524 36.9665C63.5395 37.8172 63.1759 39.3485 62.1378 39.8197C60.7719 40.4527 59.1619 40.0001 58.0009 39.1545C58.2211 38.8142 58.4431 38.4739 58.6667 38.1336C59.4402 38.6441 60.3912 39.1171 61.337 38.838C61.7724 38.7223 61.9824 38.0758 61.5761 37.8002C60.6985 37.2506 59.5187 37.2897 58.7623 36.5156C57.9957 35.6955 58.2894 34.2289 59.2592 33.71Z" fill="#E70B1B"/>
        <path d="M64.7809 33.9107C65.9761 33.3799 67.3966 33.1604 68.6566 33.6113C69.5496 33.9397 70.0703 34.8754 70.0891 35.7942C70.1318 37.191 70.0891 38.5896 70.1062 39.9865H68.6156C68.6156 39.7364 68.6293 39.4879 68.6378 39.2412C67.721 40.2093 66.1007 40.4322 64.9943 39.6666C63.888 38.901 63.9836 36.9937 65.1651 36.3454C66.2356 35.7414 67.5366 35.9337 68.6805 36.1923C68.5883 35.7278 68.5098 35.1715 68.0317 34.9401C67.1268 34.5062 66.0819 34.7887 65.1907 35.1102C65.049 34.7087 64.9158 34.3123 64.7809 33.9107ZM66.2117 37.22C65.6209 37.4752 65.5287 38.3939 66.0802 38.741C66.7632 39.1715 67.7517 39.0269 68.3203 38.4705C68.6617 38.1574 68.6498 37.6742 68.6839 37.2523C67.8883 37.0481 66.9868 36.8355 66.2117 37.22Z" fill="#E70B1B"/>
        <path d="M75.9042 34.3225C77.0105 33.0635 79.2147 32.9886 80.3638 34.2255C81.1236 35.032 81.3285 36.1906 81.2755 37.2625C79.6774 37.2727 78.0776 37.2625 76.4795 37.271C76.6332 37.8665 76.9354 38.4927 77.5467 38.7343C78.4362 39.129 79.4589 38.7853 80.1265 38.1354C80.4253 38.3957 80.7155 38.6662 81.0109 38.9333C79.8004 40.388 77.364 40.5633 76.0015 39.2362C74.6936 37.9618 74.68 35.6547 75.9042 34.3225ZM77.0191 35.0728C76.7015 35.3961 76.5991 35.8487 76.471 36.2638C77.5893 36.2638 78.7094 36.2723 79.8277 36.2638C79.6928 35.8163 79.5887 35.3229 79.2352 34.9895C79.0845 34.8494 78.9075 34.7404 78.7143 34.6688C78.5212 34.5971 78.3157 34.5643 78.1098 34.572C77.9038 34.5797 77.7014 34.628 77.5143 34.7139C77.3271 34.7999 77.1588 34.9218 77.0191 35.0728Z" fill="#E70B1B"/>
        <path d="M83.5174 33.6879C84.7126 33.043 86.1621 33.431 87.2617 34.0843L86.6607 35.1647C85.9777 34.8125 85.2145 34.4161 84.4257 34.61C84.016 34.69 83.7326 35.2685 84.0979 35.5662C84.9414 36.1753 86.116 36.1532 86.8963 36.8831C87.5263 37.4497 87.5212 38.4688 87.0995 39.1562C86.6436 39.8708 85.7336 40.1294 84.9277 40.1056C83.9443 40.1056 83.0103 39.7075 82.2215 39.1443C82.4418 38.804 82.6672 38.4637 82.8908 38.1234C83.6643 38.6339 84.6221 39.112 85.5697 38.8227C85.9965 38.7036 86.1963 38.0673 85.8036 37.8019C84.9345 37.2506 83.7547 37.2812 83.0018 36.5292C82.2028 35.7091 82.5118 34.1983 83.5174 33.6879Z" fill="#E70B1B"/>
        <path d="M92.6773 33.9073C93.7229 33.4224 94.8914 33.2646 96.0288 33.4547C96.3376 33.507 96.6327 33.6206 96.8966 33.7886C97.1606 33.9567 97.388 34.1758 97.5654 34.433C97.9257 34.9809 97.9991 35.6563 97.9974 36.3046C97.9974 37.5347 97.9974 38.7648 97.9974 39.9949H96.5069C96.5069 39.7431 96.5188 39.4845 96.5256 39.2412C95.6276 40.2059 94.0363 40.4322 92.9299 39.704C92.0199 39.1085 91.8697 37.7457 92.4673 36.883C93.4353 35.6648 95.2212 35.8758 96.5649 36.2025C96.4949 35.721 96.3839 35.1527 95.882 34.9264C94.9822 34.5164 93.9527 34.7903 93.0717 35.1204C92.9504 34.7086 92.8121 34.3105 92.6773 33.9073ZM94.0636 37.2403C93.478 37.5279 93.4524 38.4722 94.0346 38.7801C94.3793 38.954 94.7684 39.0208 95.1516 38.972C95.5348 38.9231 95.8945 38.7609 96.1842 38.5062C96.5444 38.1948 96.5393 37.6929 96.5871 37.2625C95.7812 37.0379 94.8473 36.8286 94.0636 37.2403Z" fill="#E70B1B"/>
        <path d="M100.922 33.7082C101.525 33.3777 102.224 33.2649 102.901 33.3889C103.577 33.5129 104.19 33.8661 104.636 34.3888C104.626 34.0808 104.624 33.7763 104.62 33.4717C105.119 33.4717 105.619 33.4717 106.121 33.4717C106.121 35.2106 106.121 36.9477 106.121 38.6848C106.121 39.5917 105.908 40.5836 105.199 41.208C104.421 41.8886 103.321 42.0145 102.333 41.9754C101.417 41.9305 100.525 41.6711 99.7288 41.2182C99.9155 40.8371 100.103 40.4577 100.291 40.08C101.315 40.6874 102.681 41.0447 103.799 40.4883C104.586 40.0749 104.653 39.1051 104.678 38.3241C104.267 38.7104 103.862 39.1442 103.313 39.3195C102.74 39.5102 102.122 39.5219 101.542 39.3532C100.963 39.1844 100.448 38.8432 100.069 38.3752C98.9622 36.9664 99.2849 34.5725 100.922 33.7082ZM102.374 34.6423C100.975 34.8124 100.453 36.7622 101.453 37.6878C102.45 38.7086 104.503 38.1047 104.637 36.6363C104.859 35.3977 103.55 34.353 102.374 34.6423Z" fill="#E70B1B"/>
        <path d="M108.515 34.3106C109.628 33.0584 111.832 32.992 112.975 34.2357C113.729 35.0439 113.924 36.1958 113.88 37.2608C112.28 37.2744 110.68 37.2608 109.082 37.271C109.236 37.9516 109.659 38.6475 110.388 38.8193C111.242 39.0779 112.111 38.7155 112.729 38.1388C113.022 38.4008 113.316 38.6628 113.61 38.9282C112.389 40.4272 109.866 40.5684 108.525 39.1613C107.291 37.8648 107.306 35.6173 108.515 34.3106ZM109.628 35.066C109.304 35.3876 109.201 35.8453 109.072 36.2672C110.19 36.2672 111.308 36.2774 112.428 36.2672C112.293 35.8248 112.196 35.3348 111.846 35.0031C111.697 34.8611 111.521 34.75 111.328 34.6762C111.136 34.6024 110.93 34.5675 110.724 34.5733C110.518 34.5792 110.315 34.6257 110.127 34.7103C109.938 34.7949 109.769 34.9158 109.628 35.066Z" fill="#E70B1B"/>
        <path d="M115.358 33.4735H116.859C116.859 33.7951 116.847 34.1149 116.842 34.4382C117.385 33.6879 118.291 33.1928 119.232 33.3612C120.308 33.431 121.12 34.4212 121.153 35.4658C121.201 36.9716 121.153 38.4807 121.172 39.9882H119.684C119.684 38.8176 119.684 37.6471 119.684 36.4782C119.684 35.9882 119.638 35.442 119.278 35.0728C118.855 34.6458 118.144 34.6219 117.622 34.8635C117.1 35.1051 116.859 35.7398 116.862 36.3012C116.842 37.5297 116.862 38.7598 116.862 39.9899H115.367C115.359 37.8166 115.356 35.6445 115.358 33.4735Z" fill="#E70B1B"/>
        <path d="M123.186 34.804C124.323 32.992 127.19 32.8491 128.578 34.445L127.654 35.4658C127.106 34.9367 126.357 34.5028 125.57 34.707C124.504 34.9384 123.932 36.1498 124.137 37.1604C124.262 38.0877 125.112 38.8874 126.072 38.8346C126.722 38.8448 127.267 38.4365 127.726 38.0282C128.025 38.3276 128.324 38.6305 128.623 38.9316C127.453 40.3625 125.109 40.5667 123.734 39.3229C122.464 38.2204 122.246 36.1719 123.186 34.804Z" fill="#E70B1B"/>
        <path d="M129.34 33.4735C129.871 33.4735 130.405 33.4735 130.939 33.4735C131.546 35.0751 132.156 36.675 132.768 38.2732C133.323 36.6727 133.881 35.0717 134.439 33.4701H136C135.152 35.6797 134.302 37.8915 133.451 40.1056C133.179 40.7862 132.845 41.5416 132.131 41.8512C131.344 42.149 130.473 41.9618 129.741 41.6232C129.912 41.2523 130.069 40.878 130.238 40.5071C130.69 40.6432 131.262 40.9104 131.672 40.5394C131.843 40.3591 132.104 40.1022 131.974 39.8385C131.102 37.71 130.207 35.5969 129.34 33.4735Z" fill="#E70B1B"/>
    </symbol>
</svg>


