<svg width="40" height="40" viewBox="0 0 40 40" fill="none" xmlns="http://www.w3.org/2000/svg">
    <symbol id="camera-bg-grey">
        <rect width="40" height="40" rx="8" fill="#F1F1F1"/>
        <path fill-rule="evenodd" clip-rule="evenodd" d="M26.6 15.5665H13.4C12.6042 15.5665 12.1011 15.5678 11.7207 15.602C11.3585 15.6346 11.2468 15.6882 11.209 15.7095C10.9848 15.8353 10.8025 16.036 10.6882 16.2829C10.6689 16.3246 10.6202 16.4475 10.5906 16.8463C10.5595 17.2652 10.5583 17.8192 10.5583 18.6954V25.1552C10.5583 26.0314 10.5595 26.5854 10.5906 27.0042C10.6202 27.403 10.6689 27.526 10.6882 27.5677C10.8025 27.8145 10.9848 28.0153 11.209 28.1411C11.2468 28.1623 11.3585 28.216 11.7207 28.2485C12.1011 28.2828 12.6042 28.2841 13.4 28.2841H26.6C27.3958 28.2841 27.8989 28.2828 28.2793 28.2485C28.6415 28.216 28.7532 28.1623 28.791 28.1411C29.0152 28.0153 29.1975 27.8145 29.3118 27.5677C29.3311 27.526 29.3798 27.403 29.4094 27.0042C29.4405 26.5854 29.4417 26.0314 29.4417 25.1552V18.6954C29.4417 17.8192 29.4405 17.2652 29.4094 16.8463C29.3798 16.4475 29.3311 16.3246 29.3118 16.2829C29.1975 16.036 29.0152 15.8353 28.791 15.7095C28.7532 15.6882 28.6415 15.6346 28.2793 15.602C27.8989 15.5678 27.3958 15.5665 26.6 15.5665ZM9.29973 15.5039C9 16.1516 9 16.9996 9 18.6954V25.1552C9 26.851 9 27.6989 9.29973 28.3466C9.56338 28.9164 9.98408 29.3796 10.5015 29.6699C11.0898 30 11.8599 30 13.4 30H26.6C28.1401 30 28.9102 30 29.4985 29.6699C30.0159 29.3796 30.4366 28.9164 30.7003 28.3466C31 27.6989 31 26.851 31 25.1552V18.6954C31 16.9996 31 16.1516 30.7003 15.5039C30.4366 14.9342 30.0159 14.4709 29.4985 14.1806C28.9102 13.8506 28.1401 13.8506 26.6 13.8506H13.4C11.8599 13.8506 11.0898 13.8506 10.5015 14.1806C9.98408 14.4709 9.56338 14.9342 9.29973 15.5039Z" fill="#C22821"/>
        <path fill-rule="evenodd" clip-rule="evenodd" d="M16.4188 11.7159L16.037 13.8355H23.963L23.5812 11.7159H16.4188ZM15.0076 10.4418C14.8886 10.6185 14.8461 10.8544 14.7611 11.3261L14.343 13.6475C14.2252 14.3014 14.1663 14.6284 14.2573 14.8837C14.3371 15.1077 14.4928 15.296 14.6968 15.4153C14.9294 15.5514 15.2587 15.5514 15.9171 15.5514H24.0829C24.7414 15.5514 25.0706 15.5514 25.3032 15.4153C25.5072 15.296 25.6629 15.1077 25.7427 14.8837C25.8337 14.6284 25.7748 14.3014 25.6571 13.6475L25.2389 11.3261C25.1539 10.8544 25.1114 10.6185 24.9924 10.4418C24.8874 10.286 24.7414 10.163 24.5707 10.0866C24.3771 10 24.1397 10 23.6647 10H16.3353C15.8603 10 15.6229 10 15.4293 10.0866C15.2587 10.163 15.1126 10.286 15.0076 10.4418Z" fill="#C22821"/>
        <path fill-rule="evenodd" clip-rule="evenodd" d="M20 25.2562C21.8225 25.2562 23.3 23.7649 23.3 21.9253C23.3 20.0858 21.8225 18.5945 20 18.5945C18.1775 18.5945 16.7 20.0858 16.7 21.9253C16.7 23.7649 18.1775 25.2562 20 25.2562ZM20 26.972C22.7614 26.972 25 24.7125 25 21.9253C25 19.1381 22.7614 16.8787 20 16.8787C17.2386 16.8787 15 19.1381 15 21.9253C15 24.7125 17.2386 26.972 20 26.972Z" fill="#C22821"/>
    </symbol>
</svg>
