<svg width="40" height="40" viewBox="0 0 40 40" fill="none" xmlns="http://www.w3.org/2000/svg">
    <symbol id="clip-bg-grey">
        <rect width="40" height="40" rx="8" fill="#F1F1F1"/>
        <path d="M29.5516 17.2839C29.2253 16.9594 28.6976 16.9608 28.3731 17.2871L18.3553 27.359C17.0557 28.6587 14.9448 28.6587 13.6427 27.3572C12.3416 26.0555 12.3416 23.9446 13.6429 22.6433L23.9571 12.2749C24.7685 11.4635 26.0877 11.4635 26.9015 12.2766C27.715 13.0902 27.715 14.4092 26.9013 15.223L18.3569 23.7673C18.3564 23.7679 18.3559 23.7685 18.3553 23.769C18.0298 24.0928 17.5038 24.0923 17.1789 23.7675C16.8535 23.4421 16.8535 22.9147 17.1789 22.5893L21.3032 18.4641C21.6286 18.1386 21.6286 17.611 21.3031 17.2856C20.9776 16.9602 20.45 16.9602 20.1246 17.2857L16.0003 21.4108C15.0241 22.387 15.0241 23.9697 16.0004 24.946C16.9766 25.9222 18.5593 25.9222 19.5356 24.946C19.5368 24.9448 19.5377 24.9436 19.5388 24.9425L28.0798 16.4015C29.5445 14.9368 29.5445 12.5625 28.0798 11.0978C26.615 9.63405 24.2408 9.63405 22.777 11.0978L12.4628 21.4663C10.5122 23.4169 10.5122 26.5828 12.4642 28.5358C14.4175 30.488 17.5834 30.488 19.5355 28.5359L29.5548 18.4625C29.8793 18.1361 29.8779 17.6085 29.5516 17.2839Z" fill="#C22821"/>
    </symbol>
</svg>

