<svg width="18" height="22" viewBox="0 0 18 22" fill="none" xmlns="http://www.w3.org/2000/svg">
    <symbol id="copy">
        <path d="M2.55144 22H11.2922C12.9959 22 13.8436 21.126 13.8436 19.3863V17.8464H15.4486C17.1523 17.8464 18 16.9724 18 15.2327V7.41657C18 6.39274 17.8025 5.74347 17.1852 5.10253L13.0288 0.824064C12.4362 0.216421 11.7531 0 10.8724 0H6.70782C5.01235 0 4.15638 0.874007 4.15638 2.6137V4.15361H2.55144C0.855967 4.15361 0 5.02762 0 6.76731V19.3863C0 21.1343 0.855967 22 2.55144 22ZM13.8436 11.8282C13.8436 10.7628 13.7284 10.2966 13.07 9.61407L8.52675 4.93606C7.90123 4.29512 7.39095 4.15361 6.46091 4.15361H5.48148V2.63034C5.48148 1.8146 5.92593 1.34014 6.77366 1.34014H11.037V5.69353C11.037 6.65078 11.5062 7.11691 12.4444 7.11691H16.6749V15.216C16.6749 16.0401 16.2387 16.5062 15.3827 16.5062H13.8436V11.8282ZM12.642 5.90995C12.3539 5.90995 12.2305 5.78509 12.2305 5.49376V1.60651L16.4115 5.90995H12.642ZM2.61728 20.6599C1.76955 20.6599 1.3251 20.1937 1.3251 19.3697V6.78396C1.3251 5.95989 1.76955 5.49376 2.62551 5.49376H6.27984V10.3216C6.27984 11.3704 6.80658 11.8865 7.82716 11.8865H12.5185V19.3697C12.5185 20.1937 12.0823 20.6599 11.2263 20.6599H2.61728ZM7.97531 10.6296C7.65432 10.6296 7.52263 10.4964 7.52263 10.1718V5.7518L12.2634 10.6296H7.97531Z" fill="#007AFF"/>
    </symbol>
</svg>
