<svg width="21" height="24" viewBox="0 0 21 24" fill="none" xmlns="http://www.w3.org/2000/svg">
<path d="M18.1673 21.5857L18.9594 5.51589H20.294C20.6814 5.51589 21 5.20573 21 4.82012C21 4.44289 20.6814 4.13273 20.294 4.13273H15.2743V2.45616C15.2743 0.980789 14.2325 0 12.5879 0H8.39483C6.75892 0 5.7171 0.980789 5.7171 2.45616V4.13273H0.714637C0.327183 4.13273 0 4.45127 0 4.82012C0 5.20573 0.327183 5.51589 0.714637 5.51589H2.0492L2.84994 21.5941C2.91882 23.036 3.94342 24 5.45018 24H15.567C17.048 24 18.0898 23.0276 18.1673 21.5857ZM7.23247 2.53999C7.23247 1.86937 7.74047 1.37478 8.49815 1.37478H12.4932C13.2509 1.37478 13.7675 1.86937 13.7675 2.53999V4.13273H7.23247V2.53999ZM5.57934 22.6085C4.89914 22.6085 4.36531 22.0971 4.33087 21.4349L3.53014 5.51589H17.444L16.6777 21.4349C16.6433 22.1055 16.1267 22.6085 15.4293 22.6085H5.57934ZM13.8106 20.5714C14.1378 20.5714 14.3788 20.3199 14.3875 19.9679L14.7319 8.25707C14.7405 7.91338 14.4994 7.63674 14.1722 7.63674C13.8622 7.63674 13.6125 7.91338 13.6039 8.24869L13.2509 19.9511C13.2423 20.2948 13.4834 20.5714 13.8106 20.5714ZM7.18942 20.5714C7.52521 20.5714 7.7663 20.2948 7.75769 19.9511L7.40467 8.24869C7.39606 7.91338 7.13776 7.63674 6.8278 7.63674C6.50922 7.63674 6.25953 7.90499 6.26814 8.25707L6.62977 19.9679C6.63838 20.3199 6.87085 20.5714 7.18942 20.5714ZM11.0898 19.9595V8.24869C11.0898 7.91338 10.8315 7.63674 10.5043 7.63674C10.1857 7.63674 9.91882 7.91338 9.91882 8.24869V19.9595C9.91882 20.2948 10.1857 20.5714 10.5043 20.5714C10.8229 20.5714 11.0898 20.2948 11.0898 19.9595Z" fill="#BE5757"/>
</svg>
