<svg width="21" height="24" viewBox="0 0 21 24" fill="none" xmlns="http://www.w3.org/2000/svg">
    <symbol id="delete">
        <path d="M17.5146 21.3745L18.2783 5.46191H19.5649C19.9385 5.46191 20.2456 5.15479 20.2456 4.77295C20.2456 4.39941 19.9385 4.09229 19.5649 4.09229H14.7256V2.43213C14.7256 0.971191 13.7212 0 12.1357 0H8.09326C6.51611 0 5.51172 0.971191 5.51172 2.43213V4.09229H0.688965C0.31543 4.09229 0 4.40771 0 4.77295C0 5.15479 0.31543 5.46191 0.688965 5.46191H1.97559L2.74756 21.3828C2.81396 22.8105 3.80176 23.7651 5.25439 23.7651H15.0078C16.4355 23.7651 17.4399 22.8022 17.5146 21.3745ZM6.97266 2.51514C6.97266 1.85107 7.4624 1.36133 8.19287 1.36133H12.0444C12.7749 1.36133 13.2729 1.85107 13.2729 2.51514V4.09229H6.97266V2.51514ZM5.37891 22.3872C4.72314 22.3872 4.2085 21.8809 4.17529 21.2251L3.40332 5.46191H16.8174L16.0786 21.2251C16.0454 21.8892 15.5474 22.3872 14.875 22.3872H5.37891ZM13.3145 20.3701C13.6299 20.3701 13.8623 20.1211 13.8706 19.7725L14.2026 8.17627C14.2109 7.83594 13.9785 7.56201 13.6631 7.56201C13.3643 7.56201 13.1235 7.83594 13.1152 8.16797L12.7749 19.7559C12.7666 20.0962 12.999 20.3701 13.3145 20.3701ZM6.93115 20.3701C7.25488 20.3701 7.4873 20.0962 7.479 19.7559L7.13867 8.16797C7.13037 7.83594 6.88135 7.56201 6.58252 7.56201C6.27539 7.56201 6.03467 7.82764 6.04297 8.17627L6.3916 19.7725C6.3999 20.1211 6.62402 20.3701 6.93115 20.3701ZM10.6914 19.7642V8.16797C10.6914 7.83594 10.4424 7.56201 10.127 7.56201C9.81982 7.56201 9.5625 7.83594 9.5625 8.16797V19.7642C9.5625 20.0962 9.81982 20.3701 10.127 20.3701C10.4341 20.3701 10.6914 20.0962 10.6914 19.7642Z" fill="white"/>
    <symbol>
</svg>
