<svg width="140" height="140" viewBox="0 0 140 140" fill="none" xmlns="http://www.w3.org/2000/svg">
    <symbol id="paysheet">
        <circle cx="70" cy="70" r="70" fill="#F5F5F5"/>
        <path fill-rule="evenodd" clip-rule="evenodd" d="M45.2998 56.6425H57.1612C58.1219 56.6425 58.9172 57.2918 59.2529 58.1308L61.682 64.2036H85.6253V40.2597C85.6253 39.5666 85.0582 38.9995 84.3651 38.9995H46.56C45.8669 38.9995 45.2998 39.5666 45.2998 40.2597V56.6425Z" fill="white"/>
        <path fill-rule="evenodd" clip-rule="evenodd" d="M59.2532 58.1313C58.9177 57.2923 58.1222 56.6431 57.1615 56.6431H45.3001H40.2594C39.5663 56.6431 38.9993 57.2101 38.9993 57.9032V94.4483C38.9993 95.8345 40.1334 96.9687 41.5196 96.9687H82.941C73.2918 87.7148 76.2115 75.4391 76.2115 75.4391C79.3055 75.4391 86.0934 73.0355 88.3981 70.7566C89.172 71.5218 90.4512 72.3009 91.9263 72.9983V66.7243C91.9263 65.3382 90.7922 64.204 89.406 64.204H85.6255H61.6822L59.2532 58.1313Z" fill="#FFC144"/>
        <path fill-rule="evenodd" clip-rule="evenodd" d="M88.3982 70.7559C86.0935 73.0348 79.3056 75.4384 76.2116 75.4384C76.2116 75.4384 73.2919 87.7141 82.9412 96.9679C84.4384 98.4038 86.2382 99.7668 88.3984 101C104.481 91.819 100.585 75.4384 100.585 75.4384C98.5299 75.4384 94.8449 74.3778 91.9266 72.9978C90.4513 72.3002 89.1721 71.521 88.3982 70.7559ZM81.9086 83.9074C82.8927 82.9232 84.4884 82.9232 85.4725 83.9074L86.9546 85.3895L91.3237 81.0203C92.3078 80.0361 93.9035 80.0361 94.8876 81.0203C95.8718 82.0044 95.8718 83.6002 94.8876 84.5842L88.7365 90.7354C87.7524 91.7196 86.1566 91.7196 85.1726 90.7354L81.9085 87.4713C80.9245 86.4872 80.9245 84.8916 81.9086 83.9074Z" fill="#6D91AC"/>
        <path fill-rule="evenodd" clip-rule="evenodd" d="M86.9545 85.3895L85.4724 83.9074C84.4884 82.9232 82.8926 82.9232 81.9086 83.9074C80.9244 84.8915 80.9244 86.4872 81.9086 87.4713L85.1727 90.7354C86.1568 91.7196 87.7525 91.7196 88.7365 90.7354L94.8877 84.5843C95.8719 83.6002 95.8719 82.0044 94.8877 81.0204C93.9036 80.0362 92.3079 80.0362 91.3238 81.0204L86.9545 85.3895Z" fill="#CBE558"/>
        <path d="M101.811 75.1469C101.676 74.5791 101.168 74.1784 100.585 74.1784C98.8688 74.1784 95.79 73.3238 93.1865 72.1923V66.7238C93.1865 64.6392 91.4906 62.9433 89.406 62.9433H86.8857V40.2596C86.8857 38.8699 85.7551 37.7393 84.3653 37.7393H46.5602C45.1705 37.7393 44.0399 38.8699 44.0399 40.2596V55.3823H40.2594C38.8696 55.3823 37.739 56.5129 37.739 57.9026V94.4477C37.739 96.5323 39.435 98.2282 41.5195 98.2282H82.4518C83.9341 99.5981 85.6908 100.906 87.7735 102.095C87.967 102.205 88.1826 102.26 88.3983 102.26C88.6139 102.26 88.8294 102.205 89.023 102.095C97.7441 97.1161 100.762 90.0619 101.759 85.0209C102.836 79.5716 101.853 75.3251 101.811 75.1469ZM46.5602 40.2596H84.3653V62.9433H62.5355L60.4232 57.6627C59.8691 56.2774 58.5888 55.3822 57.1615 55.3822H46.5602V40.2596ZM40.2594 94.4477V93.1874H46.8117C47.5077 93.1874 48.0719 92.6232 48.0719 91.9272C48.0719 91.2312 47.5077 90.6671 46.8117 90.6671H40.2594V57.9026H57.1615C57.6059 57.9026 57.9446 58.2522 58.0832 58.5987L60.5124 64.6715C60.7039 65.15 61.1672 65.4636 61.6825 65.4636H89.4063C90.1011 65.4636 90.6664 66.029 90.6664 66.7238V70.9014C90.1078 70.5556 89.633 70.2045 89.2844 69.8598C88.7934 69.3742 88.0033 69.3742 87.5122 69.8598C85.4454 71.9035 79.0121 74.1782 76.2117 74.1782C75.6281 74.1782 75.1207 74.579 74.9856 75.1468C74.9433 75.325 73.9605 79.5715 75.0377 85.0207C75.6534 88.136 77.0422 92.02 80.0709 95.7079H41.5195C40.8247 95.7079 40.2594 95.1426 40.2594 94.4477ZM99.2863 84.532C98.0282 90.896 94.3668 95.9416 88.3981 99.5392C82.4625 95.9613 78.8077 90.9493 77.53 84.6321C76.8151 81.0969 77.0732 78.0743 77.2799 76.6327C80.5313 76.2668 85.6665 74.4309 88.3983 72.4021C91.1306 74.4314 96.2674 76.2676 99.5188 76.6329C99.7247 78.0555 99.9802 81.021 99.2863 84.532Z" fill="#292929"/>
        <path d="M51.1596 45.3001H79.7653C80.4613 45.3001 81.0255 44.7359 81.0255 44.04C81.0255 43.344 80.4613 42.7798 79.7653 42.7798H51.1596C50.4636 42.7798 49.8994 43.344 49.8994 44.04C49.8994 44.7359 50.4636 45.3001 51.1596 45.3001Z" fill="#292929"/>
        <path d="M81.0255 49.081C81.0255 48.385 80.4613 47.8208 79.7653 47.8208H51.1596C50.4636 47.8208 49.8994 48.385 49.8994 49.081C49.8994 49.777 50.4636 50.3411 51.1596 50.3411H79.7653C80.4612 50.3411 81.0255 49.777 81.0255 49.081Z" fill="#292929"/>
        <path d="M79.7655 52.8613H65.4626C64.7666 52.8613 64.2024 53.4255 64.2024 54.1215C64.2024 54.8175 64.7666 55.3817 65.4626 55.3817H79.7655C80.4615 55.3817 81.0257 54.8175 81.0257 54.1215C81.0257 53.4255 80.4614 52.8613 79.7655 52.8613Z" fill="#292929"/>
        <path d="M79.7655 57.9019H72.3305C71.6345 57.9019 71.0703 58.466 71.0703 59.162C71.0703 59.858 71.6345 60.4222 72.3305 60.4222H79.7655C80.4615 60.4222 81.0257 59.858 81.0257 59.162C81.0257 58.466 80.4614 57.9019 79.7655 57.9019Z" fill="#292929"/>
        <path d="M93.1054 79.022C92.0956 79.022 91.1464 79.4153 90.4323 80.1293L86.9543 83.6074L86.3632 83.0163C85.6492 82.3023 84.6999 81.9092 83.6902 81.9092C82.6804 81.9092 81.7311 82.3024 81.0172 83.0163C80.3032 83.7303 79.9099 84.6796 79.9099 85.6894C79.9099 86.6992 80.3032 87.6485 81.0171 88.3625L84.2812 91.6266C85.0181 92.3635 85.9862 92.7319 86.9541 92.7319C87.9221 92.7319 88.8903 92.3634 89.6272 91.6266L95.7784 85.4754C97.2523 84.0015 97.2523 81.6032 95.7784 80.1294C95.0646 79.4153 94.1153 79.022 93.1054 79.022ZM93.9964 83.693L87.8453 89.8442C87.3541 90.3354 86.5548 90.3353 86.0636 89.8442L82.7995 86.5801C82.5614 86.3422 82.4305 86.0257 82.4305 85.6893C82.4305 85.3527 82.5616 85.0364 82.7995 84.7985C83.0374 84.5604 83.3538 84.4295 83.6903 84.4295C84.0268 84.4295 84.3432 84.5605 84.5811 84.7985L86.0632 86.2806C86.2995 86.5168 86.6201 86.6497 86.9543 86.6497C87.2885 86.6497 87.6091 86.5168 87.8453 86.2806L92.2145 81.9114C92.4524 81.6734 92.7688 81.5424 93.1053 81.5424C93.4419 81.5424 93.7582 81.6735 93.9961 81.9114C94.4876 82.4026 94.4876 83.2018 93.9964 83.693Z" fill="#292929"/>
        <path d="M52.4821 90.667C51.7861 90.667 51.2219 91.2312 51.2219 91.9272C51.2219 92.6232 51.7861 93.1874 52.4821 93.1874H52.483C53.179 93.1874 53.7428 92.6232 53.7428 91.9272C53.7428 91.2312 53.1781 90.667 52.4821 90.667Z" fill="#292929"/>
    </symbol>
</svg>
