<svg width="23" height="24" viewBox="0 0 23 24" fill="none" xmlns="http://www.w3.org/2000/svg">
    <symbol id="settings-grey">
        <path d="M20.8776 13.7451L20.4304 13.4846C19.8981 13.1751 19.5801 12.6197 19.5801 12C19.5801 11.3803 19.8981 10.8249 20.4304 10.5154L20.8776 10.2549C22.0986 9.54343 22.5161 7.97314 21.8112 6.74229L20.961 5.25771C20.2578 4.02943 18.6941 3.60771 17.4765 4.31657L17.0293 4.57629C16.497 4.88657 15.8602 4.88657 15.3287 4.57629C14.7965 4.266 14.4785 3.71143 14.4785 3.09171V2.57143C14.4785 1.15371 13.334 0 11.9276 0H10.2271C8.82072 0 7.67624 1.15371 7.67624 2.57143V3.09257C7.67624 3.71229 7.35824 4.26686 6.82597 4.57714C6.2937 4.88657 5.65769 4.88743 5.12542 4.57714L4.67817 4.31657C3.46058 3.60771 1.89692 4.02943 1.19289 5.25771L0.342613 6.74229C-0.362266 7.97314 0.0552199 9.54429 1.27622 10.2549L1.72431 10.5154C2.25658 10.8249 2.57459 11.3803 2.57459 12C2.57459 12.6197 2.25658 13.1751 1.72431 13.4846L1.27707 13.7451C0.0560702 14.4557 -0.361415 16.0269 0.343463 17.2577L1.19374 18.7423C1.89777 19.9706 3.46143 20.3923 4.67817 19.6834L5.12542 19.4237C5.65769 19.1126 6.2937 19.1143 6.82597 19.4237C7.35824 19.734 7.67624 20.2886 7.67624 20.9083V21.4286C7.67624 22.8463 8.82072 24 10.2271 24H11.9276C13.334 24 14.4785 22.8463 14.4785 21.4286V20.9074C14.4785 20.2877 14.7965 19.7331 15.3287 19.4229C15.8602 19.1134 16.497 19.1126 17.0293 19.4229L17.4765 19.6834C18.6941 20.3914 20.2578 19.9697 20.961 18.7423L21.8112 17.2577C22.5161 16.0269 22.0986 14.4557 20.8776 13.7451ZM11.0773 16.2857C8.73314 16.2857 6.82597 14.3631 6.82597 12C6.82597 9.63686 8.73314 7.71429 11.0773 7.71429C13.4216 7.71429 15.3287 9.63686 15.3287 12C15.3287 14.3631 13.4216 16.2857 11.0773 16.2857Z" fill="#8A8A8E"/>
    </symbol>
</svg>
