<svg width="21" height="21" viewBox="0 0 21 21" fill="none" xmlns="http://www.w3.org/2000/svg">
    <symbol id="undo-blue">
        <path fill-rule="evenodd" clip-rule="evenodd" d="M0.21967 5.97563C-0.0732233 5.68649 -0.0732233 5.21771 0.21967 4.92858L4.99264 0.216851C5.28553 -0.0722837 5.76041 -0.0722837 6.0533 0.216851C6.34619 0.505986 6.34619 0.974766 6.0533 1.2639L2.56066 4.71173H12.75C17.3063 4.71173 21 8.35798 21 12.8559C21 17.3537 17.3063 21 12.75 21C12.3358 21 12 20.6685 12 20.2596C12 19.8507 12.3358 19.5192 12.75 19.5192C16.4779 19.5192 19.5 16.5359 19.5 12.8559C19.5 9.17578 16.4779 6.19248 12.75 6.19248H2.56066L6.0533 9.6403C6.34619 9.92944 6.34619 10.3982 6.0533 10.6874C5.76041 10.9765 5.28553 10.9765 4.99264 10.6874L0.21967 5.97563Z" fill="#007AFF"/>
    </symbol>
</svg>
