<svg width="24" height="22" viewBox="0 0 24 22" fill="none" xmlns="http://www.w3.org/2000/svg">
    <symbol id="white-camera">    
        <path fill-rule="evenodd" clip-rule="evenodd" d="M19.2 6.12305H4.8C3.93187 6.12305 3.38301 6.12452 2.96804 6.16217C2.57291 6.19801 2.45108 6.25702 2.40981 6.28037C2.1652 6.41875 1.96633 6.63955 1.84169 6.91114C1.82066 6.95696 1.76751 7.09222 1.73523 7.53092C1.70132 7.99165 1.7 8.60103 1.7 9.56489V16.6706C1.7 17.6345 1.70132 18.2439 1.73523 18.7046C1.76751 19.1433 1.82066 19.2785 1.84169 19.3244C1.96633 19.596 2.1652 19.8168 2.40981 19.9551C2.45108 19.9785 2.57291 20.0375 2.96804 20.0733C3.38301 20.111 3.93187 20.1125 4.8 20.1125H19.2C20.0681 20.1125 20.617 20.111 21.032 20.0733C21.4271 20.0375 21.5489 19.9785 21.5902 19.9551C21.8348 19.8168 22.0337 19.596 22.1583 19.3244C22.1793 19.2785 22.2325 19.1433 22.2648 18.7046C22.2987 18.2439 22.3 17.6345 22.3 16.6706V9.56489C22.3 8.60103 22.2987 7.99165 22.2648 7.53092C22.2325 7.09222 22.1793 6.95696 22.1583 6.91114C22.0337 6.63955 21.8348 6.41875 21.5902 6.28037C21.5489 6.25702 21.4271 6.19801 21.032 6.16217C20.617 6.12452 20.0681 6.12305 19.2 6.12305ZM0.32698 6.05425C0 6.76675 0 7.69946 0 9.56489V16.6706C0 18.536 0 19.4688 0.32698 20.1813C0.614601 20.808 1.07354 21.3175 1.63803 21.6369C2.27976 21.9999 3.11984 21.9999 4.8 21.9999H19.2C20.8802 21.9999 21.7202 21.9999 22.362 21.6369C22.9265 21.3175 23.3854 20.808 23.673 20.1813C24 19.4688 24 18.536 24 16.6706V9.56489C24 7.69946 24 6.76675 23.673 6.05425C23.3854 5.42752 22.9265 4.91797 22.362 4.59863C21.7202 4.2356 20.8802 4.2356 19.2 4.2356H4.8C3.11984 4.2356 2.27976 4.2356 1.63803 4.59863C1.07354 4.91797 0.614601 5.42752 0.32698 6.05425Z" fill="white"/>
        <path fill-rule="evenodd" clip-rule="evenodd" d="M8.09324 1.88746L7.67672 4.21903H16.3233L15.9068 1.88746H8.09324ZM6.55381 0.485994C6.42394 0.680384 6.37759 0.939809 6.2849 1.45866L5.8287 4.01228C5.7002 4.73158 5.63595 5.09124 5.73521 5.37206C5.82231 5.61844 5.99215 5.82557 6.21475 5.95685C6.46848 6.10649 6.82765 6.10649 7.546 6.10649H16.4541C17.1724 6.10649 17.5316 6.10649 17.7853 5.95685C18.0079 5.82557 18.1778 5.61844 18.2648 5.37206C18.3641 5.09124 18.2999 4.73158 18.1714 4.01228L17.7152 1.45866C17.6225 0.939808 17.5761 0.680384 17.4463 0.485994C17.3318 0.31461 17.1724 0.179264 16.9862 0.0952713C16.7751 2.9697e-06 16.516 2.96847e-06 15.9979 2.96847e-06H8.0022C7.48404 2.96847e-06 7.22496 2.9697e-06 7.01381 0.0952713C6.82765 0.179264 6.6683 0.31461 6.55381 0.485994Z" fill="white"/>
        <path fill-rule="evenodd" clip-rule="evenodd" d="M12 16.7816C13.9882 16.7816 15.6 15.1413 15.6 13.1178C15.6 11.0942 13.9882 9.45387 12 9.45387C10.0117 9.45387 8.39996 11.0942 8.39996 13.1178C8.39996 15.1413 10.0117 16.7816 12 16.7816ZM12 18.6691C15.0124 18.6691 17.4545 16.1837 17.4545 13.1178C17.4545 10.0518 15.0124 7.56641 12 7.56641C8.98749 7.56641 6.54541 10.0518 6.54541 13.1178C6.54541 16.1837 8.98749 18.6691 12 18.6691Z" fill="white"/>
    </symbol>
</svg>
