<svg width="22" height="22" viewBox="0 0 22 22" fill="none" xmlns="http://www.w3.org/2000/svg">
    <symbol id="white-clip">    
        <path d="M21.7125 8.01234C21.3305 7.6553 20.713 7.65689 20.3331 8.01582L8.60857 19.0949C7.08746 20.5245 4.61694 20.5245 3.09298 19.093C1.57017 17.661 1.57017 15.339 3.09317 13.9076L15.1648 2.50238C16.1145 1.60986 17.6584 1.60986 18.6108 2.50431C19.563 3.3992 19.563 4.85016 18.6106 5.7453L8.6104 15.1441C8.60976 15.1447 8.60921 15.1453 8.60857 15.1459C8.2276 15.502 7.6119 15.5016 7.2317 15.1442C6.85086 14.7863 6.85086 14.2062 7.2317 13.8482L12.0587 9.31054C12.4396 8.95251 12.4395 8.37208 12.0586 8.01414C11.6776 7.6562 11.0601 7.65625 10.6792 8.01427L5.85227 12.5519C4.7097 13.6257 4.7097 15.3667 5.85236 16.4406C6.99497 17.5145 8.84732 17.5145 9.98998 16.4406C9.9913 16.4393 9.99235 16.438 9.99363 16.4368L19.9899 7.04161C21.7041 5.4305 21.7041 2.81872 19.9899 1.20762C18.2755 -0.40254 15.4968 -0.40254 13.7836 1.20762L1.712 12.613C-0.570939 14.7586 -0.570939 18.2411 1.71364 20.3894C3.99973 22.5369 7.70508 22.5369 9.98979 20.3895L21.7162 9.30873C22.0961 8.94976 22.0944 8.36937 21.7125 8.01234Z" fill="white"/>
    </symbol>
</svg>